/* XPM */
static char * AppIcon_xpm[] = {
"42 34 410 2",
"  	c None",
". 	c #000000",
"+ 	c #090900",
"@ 	c #181800",
"# 	c #383800",
"$ 	c #464600",
"% 	c #3A3A00",
"& 	c #191900",
"* 	c #0A0A00",
"= 	c #393900",
"- 	c #171700",
"; 	c #151500",
"> 	c #656500",
", 	c #B1B100",
"' 	c #C8C800",
") 	c #CCCC00",
"! 	c #B9B900",
"~ 	c #6E6E00",
"{ 	c #414100",
"] 	c #BABA00",
"^ 	c #C6C600",
"/ 	c #ADAD00",
"( 	c #636300",
"_ 	c #141400",
": 	c #525200",
"< 	c #9F9F00",
"[ 	c #C9C900",
"} 	c #E4E400",
"| 	c #F0F000",
"1 	c #F7F700",
"2 	c #FBFB00",
"3 	c #595900",
"4 	c #FAFA00",
"5 	c #F6F600",
"6 	c #EDED00",
"7 	c #E0E000",
"8 	c #C3C300",
"9 	c #9A9A00",
"0 	c #4E4E00",
"a 	c #121200",
"b 	c #4B4B00",
"c 	c #A1A100",
"d 	c #CACA00",
"e 	c #D6D600",
"f 	c #DDDD00",
"g 	c #E5E500",
"h 	c #ECEC00",
"i 	c #1B1B00",
"j 	c #060600",
"k 	c #5A5A00",
"l 	c #E1E100",
"m 	c #EFEF00",
"n 	c #EAEA00",
"o 	c #E2E200",
"p 	c #D9D900",
"q 	c #D0D000",
"r 	c #101000",
"s 	c #2C2C00",
"t 	c #858500",
"u 	c #C4C400",
"v 	c #CBCB00",
"w 	c #D3D300",
"x 	c #ABAB00",
"y 	c #676700",
"z 	c #3F3F00",
"A 	c #28280C",
"B 	c #242418",
"C 	c #373734",
"D 	c #434343",
"E 	c #484848",
"F 	c #444444",
"G 	c #383835",
"H 	c #252519",
"I 	c #28280D",
"J 	c #3E3E00",
"K 	c #686800",
"L 	c #C7C700",
"M 	c #D2D200",
"N 	c #CDCD00",
"O 	c #C5C500",
"P 	c #BCBC00",
"Q 	c #B0B000",
"R 	c #7D7D00",
"S 	c #282800",
"T 	c #050500",
"U 	c #0F0F00",
"V 	c #989800",
"W 	c #C0C000",
"X 	c #A8A800",
"Y 	c #5D5D00",
"Z 	c #252510",
"` 	c #272723",
" .	c #3E3E3E",
"..	c #6A6A6A",
"+.	c #B3B3B3",
"@.	c #BEBEBE",
"#.	c #C0C0C0",
"$.	c #CACACA",
"%.	c #B9B9B9",
"&.	c #6E6E6E",
"*.	c #414141",
"=.	c #292925",
"-.	c #262612",
";.	c #373700",
">.	c #A4A400",
",.	c #BEBE00",
"'.	c #8E8E00",
").	c #0D0D00",
"!.	c #202000",
"~.	c #9C9C00",
"{.	c #A7A700",
"].	c #AEAE00",
"^.	c #B2B200",
"/.	c #999900",
"(.	c #4D4D00",
"_.	c #222206",
":.	c #25251D",
"<.	c #3B3B3B",
"[.	c #686868",
"}.	c #DBDBDB",
"|.	c #DEDEDE",
"1.	c #9A9A9A",
"2.	c #8F8F8F",
"3.	c #D2D2D2",
"4.	c #F6F6F6",
"5.	c #E4E4E4",
"6.	c #BCBCBC",
"7.	c #282820",
"8.	c #222207",
"9.	c #4C4C00",
"0.	c #949400",
"a.	c #A5A500",
"b.	c #919100",
"c.	c #1D1D00",
"d.	c #242400",
"e.	c #707000",
"f.	c #A0A000",
"g.	c #8A8A00",
"h.	c #1F1F08",
"i.	c #252523",
"j.	c #5C5C5C",
"k.	c #AEAEAE",
"l.	c #D4D4D4",
"m.	c #ECECEC",
"n.	c #F2F2F2",
"o.	c #353535",
"p.	c #202020",
"q.	c #666666",
"r.	c #E0E0E0",
"s.	c #FDFDFD",
"t.	c #FBFBFB",
"u.	c #646464",
"v.	c #292927",
"w.	c #20200A",
"x.	c #444400",
"y.	c #848400",
"z.	c #979700",
"A.	c #888800",
"B.	c #212100",
"C.	c #898900",
"D.	c #878700",
"E.	c #1D1D06",
"F.	c #242422",
"G.	c #5B5B5B",
"H.	c #E6E6E6",
"I.	c #EEEEEE",
"J.	c #F0F0F0",
"K.	c #333333",
"L.	c #141414",
"M.	c #3C3C3C",
"N.	c #FFFFFF",
"O.	c #CFCFCF",
"P.	c #656565",
"Q.	c #1D1D07",
"R.	c #424200",
"S.	c #7F7F00",
"T.	c #868600",
"U.	c #5C5C00",
"V.	c #1A1A00",
"W.	c #565600",
"X.	c #838300",
"Y.	c #252500",
"Z.	c #21211B",
"`.	c #585858",
" +	c #E2E2E2",
".+	c #E8E8E8",
"++	c #E9E9E9",
"@+	c #EBEBEB",
"#+	c #EDEDED",
"$+	c #BFBFBF",
"%+	c #363636",
"&+	c #383838",
"*+	c #C4C4C4",
"=+	c #F8F8F8",
"-+	c #FAFAFA",
";+	c #FCFCFC",
">+	c #FEFEFE",
",+	c #262620",
"'+	c #232300",
")+	c #606000",
"!+	c #797900",
"~+	c #161600",
"{+	c #2F2F00",
"]+	c #6D6D00",
"^+	c #1B1B0F",
"/+	c #A4A4A4",
"(+	c #DDDDDD",
"_+	c #E3E3E3",
":+	c #E5E5E5",
"<+	c #E7E7E7",
"[+	c #BDBDBD",
"}+	c #131313",
"|+	c #373737",
"1+	c #C3C3C3",
"2+	c #404040",
"3+	c #1D1D12",
"4+	c #333300",
"5+	c #5B5B00",
"6+	c #030300",
"7+	c #515100",
"8+	c #1E1E00",
"9+	c #21211F",
"0+	c #5E5E5E",
"a+	c #C5C5C5",
"b+	c #DFDFDF",
"c+	c #E1E1E1",
"d+	c #BBBBBB",
"e+	c #F3F3F3",
"f+	c #F5F5F5",
"g+	c #F7F7F7",
"h+	c #F9F9F9",
"i+	c #6F6F6F",
"j+	c #272725",
"k+	c #484800",
"l+	c #020200",
"m+	c #16160A",
"n+	c #9F9F9F",
"o+	c #D7D7D7",
"p+	c #DCDCDC",
"q+	c #343434",
"r+	c #F1F1F1",
"s+	c #17170D",
"t+	c #1F1F00",
"u+	c #070700",
"v+	c #080800",
"w+	c #191914",
"x+	c #D8D8D8",
"y+	c #DADADA",
"z+	c #B7B7B7",
"A+	c #F4F4F4",
"B+	c #1D1D19",
"C+	c #2B2B2A",
"D+	c #989898",
"E+	c #D0D0D0",
"F+	c #D6D6D6",
"G+	c #D9D9D9",
"H+	c #B8B8B8",
"I+	c #3A3A3A",
"J+	c #161616",
"K+	c #9B9B9B",
"L+	c #C2C2C2",
"M+	c #EFEFEF",
"N+	c #353534",
"O+	c #010100",
"P+	c #A3A3A3",
"Q+	c #BABABA",
"R+	c #A6A6A6",
"S+	c #525252",
"T+	c #262626",
"U+	c #2A2A2A",
"V+	c #323232",
"W+	c #707070",
"X+	c #ACACAC",
"Y+	c #B0B0B0",
"Z+	c #EAEAEA",
"`+	c #C6C6C6",
" @	c #424242",
".@	c #393939",
"+@	c #999999",
"@@	c #757575",
"#@	c #282828",
"$@	c #2B2B2B",
"%@	c #0F0F0F",
"&@	c #101010",
"*@	c #121212",
"=@	c #171717",
"-@	c #6D6D6D",
";@	c #212121",
">@	c #464646",
",@	c #9C9C9C",
"'@	c #626262",
")@	c #727272",
"!@	c #252525",
"~@	c #272727",
"{@	c #6B6B6B",
"]@	c #A2A2A2",
"^@	c #7E7E7E",
"/@	c #919191",
"(@	c #CCCCCC",
"_@	c #D1D1D1",
":@	c #D3D3D3",
"<@	c #D5D5D5",
"[@	c #909090",
"}@	c #A8A8A8",
"|@	c #B1B1B1",
"1@	c #B4B4B4",
"2@	c #B6B6B6",
"3@	c #CECECE",
"4@	c #555555",
"5@	c #C9C9C9",
"6@	c #CBCBCB",
"7@	c #CDCDCD",
"8@	c #191919",
"9@	c #0B0B0B",
"0@	c #303030",
"a@	c #0E0E0E",
"b@	c #1C1C1C",
"c@	c #545454",
"d@	c #AFAFAF",
"e@	c #C8C8C8",
"f@	c #222222",
"g@	c #C7C7C7",
"h@	c #A7A7A7",
"i@	c #111111",
"j@	c #181818",
"k@	c #4B4B4B",
"l@	c #B5B5B5",
"m@	c #1D1D1D",
"n@	c #120000",
"o@	c #110000",
"p@	c #0D0505",
"q@	c #1E1D1D",
"r@	c #4C4C4C",
"s@	c #575757",
"t@	c #222121",
"u@	c #0E0606",
"v@	c #100000",
"w@	c #290000",
"x@	c #3E0000",
"y@	c #5A0000",
"z@	c #4A0000",
"A@	c #230707",
"B@	c #1F1D1D",
"C@	c #8D8D8D",
"D@	c #ADADAD",
"E@	c #787878",
"F@	c #7B7B7B",
"G@	c #9D9D9D",
"H@	c #232121",
"I@	c #240808",
"J@	c #590000",
"K@	c #3F0000",
"L@	c #1B0000",
"M@	c #400000",
"N@	c #6F0000",
"O@	c #BC0000",
"P@	c #E00000",
"Q@	c #CB0000",
"R@	c #650000",
"S@	c #270505",
"T@	c #211818",
"U@	c #8E8E8E",
"V@	c #C1C1C1",
"W@	c #241B1B",
"X@	c #280606",
"Y@	c #6E0000",
"Z@	c #410000",
"`@	c #1E0000",
" #	c #640000",
".#	c #E40000",
"+#	c #FB0000",
"@#	c #FF0000",
"##	c #CF0000",
"$#	c #700000",
"%#	c #240D0D",
"&#	c #1F1B1B",
"*#	c #8C8C8C",
"=#	c #9E9E9E",
"-#	c #A0A0A0",
";#	c #939393",
">#	c #211D1D",
",#	c #250E0E",
"'#	c #170000",
")#	c #510000",
"!#	c #A60000",
"~#	c #C90000",
"{#	c #CC0000",
"]#	c #C80000",
"^#	c #B60000",
"/#	c #960000",
"(#	c #580000",
"_#	c #330000",
":#	c #200909",
"<#	c #1F1212",
"[#	c #312828",
"}#	c #363333",
"|#	c #373434",
"1#	c #312929",
"2#	c #201313",
"3#	c #340000",
"4#	c #520000",
"5#	c #270000",
"6#	c #3B0000",
"7#	c #470000",
"8#	c #480000",
"9#	c #460000",
"0#	c #350000",
"a#	c #1F0000",
"b#	c #140000",
"c#	c #3A0000",
"                                                                                    ",
"                . . . . . . . .                   . . . . . . . .                   ",
"            . . + @ # $ $ % & * . .           . . * & = $ $ # - + . .               ",
"          . . ; % > , ' ) ! ~ { & . .       . . & { ~ ] ) ^ / ( # _ . .             ",
"        . . @ : < [ } | 1 2 } ! 3 @ . .   . . @ 3 ! } 4 5 6 7 8 9 0 - . .           ",
"        . a b c d e f g h | 7 ! 3 i j . . . j i k ! l m n o p q 8 9 $ r .           ",
"      . j s t ! u v w e [ x y z A B C D E F G H I J K x L M N O P Q R S T .         ",
"      . U $ V , ! W u X Y # Z `  ...+.@.#.$.%.&.*.=.-.;.Y >.,.! Q X '.{ )..         ",
"      . !.~ ~.{.].^./.(._.:.<.[.+.}.|.1.2.3.4.5.6.&.*.7.8.9.0.x a.~.b.> c..         ",
"      . d.e.0.~.f.g.$ h.i.j.k.l.m.n.@.o.p.q.r.s.t.5.6.u.v.w.x.y.z.b.A.> !..         ",
"      . B.K C.b.D.$ E.F.G.6.H.m.I.J.@.K.L.M.$.t.s.N.t.O.P.v.Q.R.S.T.R U.c..         ",
"      . V.W.R X.K Y.Z.`.%. +.+++@+#+$+%+L.&+*+=+-+;+>+t.O.u.,+'+)+!+e.9.~+.         ",
"      . * {+y ]+= ^+&+/+(+_+:+<+++@+[+%+}+|+1+4.=+-+t.s.t.6.2+3+4+( 5+S + .         ",
"      . 6+@ b 7+8+9+0+a+b+c+_+5.H..+d+o.}+|+#.e+f+g+h+t.s.5.i+j+i k+{ _ l+.         ",
"        . + !.'+m+%+n+o+p+|.r. +5.H.%.q+}+%+$+r+e+f+4.=+-+=+d+2+s+t+i u+.           ",
"        . . v++ w+G.$+x+y+p+|.b+c+_+z+q+}+%+[+I.J.n.A+4.=+-+r.&.B+v+j . .           ",
"          . . l+C+D+E+F+o+G+}.(+b+c+H+I+J+q+K+6.@.L+o+M+f+g+f+z+N+O+. .             ",
"            . . %+P+Q+1.R+O.G+}.p+|.#.S+T+U+V+q+%+M.W+@.X+Y+Z+`+ @. .               ",
"              . .@+@@@#@o.X+F+x+y+p+X+$@%@&@*@}+}+=@ .-@T+;@Q+*+>@.                 ",
"              . %+,@K+'@)@@.l.F+o+G+R+!@*@~@V+K.q+<.{@]@^@]@:+L+ @.                 ",
"              . $@/@$+H+@.(@_@:@<@o+O.]@[@}@|@1@2@Q+3@|.p+Z+@+k.o..                 ",
"              . L.4@|@5@6@7@O._@3.l.F+x+y+p+|.b+c+_+:+<+++@+:@q.8@.                 ",
"              . 9@0@/@1+5@$.(@3@E+3.l.F+o+G+}.(+b+c+_+5.H.5.X+M.a@.                 ",
"                . b@c@d@`+e@$.(@3@O._@:@<@o+G+}.p+|.r. +5.7@u.f@.                   ",
"                . a@0@2.#.a+g@5@6@7@O._@3.l.F+x+y+p+|.b+(+h@I+i@.                   ",
"                . . j@k@,@$+a+g@5@$.(@*+n+e@l.F+o+G+}.G+l@`.m@. .                   ",
"            . . n@o@p@q@r@K+@.*+`+e@$.2.j@/@_@:@<@o+<@|@s@t@u@o@n@. .               ",
"        . . v@w@x@y@z@A@B@k@C@D@#.a+g@E@. F@O._@3@[+G@c@H@I@z@J@K@w@v@. .           ",
"      . . L@M@N@O@P@Q@R@S@T@0@S+U@k.V@z+^@Q+e@H++@G.o.W@X@R@Q@P@O@Y@Z@L@. .         ",
"    . . `@ #O@.#+#@#+###$#M@%#&#0@S+*#,@=#-#;#`.K.>#,#Z@N@##+#@#+#.#O@ #`@. .       ",
"    . '#)#!#~#{#{#{#{#]#^#/#(#_#:#<#[#}#|+|#1#2#:#3#(#/#^#]#{#{#{#{#~#!#4#'#.       ",
"    '#5#6#7#8#8#8#8#8#8#8#9#M@0#a#b#b#b#b#b#b#b#a#0#M@9#8#8#8#8#8#8#8#7#c#5#'#      ",
"    . . . . . . . . . . . . . . . . . . . . . . . . . . . . . . . . . . . . .       ",
"                                                                                    "};
